<?xml version="1.0" standalone="no"?><!DOCTYPE svg PUBLIC "-//W3C//DTD SVG 1.1//EN" "http://www.w3.org/Graphics/SVG/1.1/DTD/svg11.dtd"><svg width="100" height="100" viewBox="0 0 100 100" version="1.1" xmlns="http://www.w3.org/2000/svg" xmlns:xlink="http://www.w3.org/1999/xlink"><defs><style type="text/css"><![CDATA[
@font-face { font-family: ifont; src: url("http://at.alicdn.com/t/font_1442373896_4754455.eot?#iefix") format("embedded-opentype"), url("http://at.alicdn.com/t/font_1442373896_4754455.woff") format("woff"), url("http://at.alicdn.com/t/font_1442373896_4754455.ttf") format("truetype"), url("http://at.alicdn.com/t/font_1442373896_4754455.svg#ifont") format("svg"); }

]]></style></defs><g class="transform-group"><g transform="scale(0.09765625, 0.09765625)"><path d="M870.846366 351.104543l138.750087 0L505.864768 52.867068 15.41662 351.104543l125.70498 0 0 521.242502L71.613526 872.347045l0 99.969852 69.508074 0L314.8442 972.316897l104.248296 0 173.756369 0 104.242156 0 173.755346 0 69.480444 0 0-99.969852-69.480444 0L870.846366 351.104543zM419.092495 872.347045 270.137998 872.347045 270.137998 351.104543l148.954497 0L419.092495 872.347045zM739.415988 872.347045 592.848864 872.347045 592.848864 351.104543l146.567123 0L739.415988 872.347045z" fill="#694c9c"></path></g></g></svg>