<?xml version="1.0" standalone="no"?><!DOCTYPE svg PUBLIC "-//W3C//DTD SVG 1.1//EN" "http://www.w3.org/Graphics/SVG/1.1/DTD/svg11.dtd"><svg width="180" height="180" viewBox="0 0 180 180" version="1.1" xmlns="http://www.w3.org/2000/svg" xmlns:xlink="http://www.w3.org/1999/xlink"><defs><style type="text/css"><![CDATA[
@font-face { font-family: ifont; src: url("http://at.alicdn.com/t/font_1442373896_4754455.eot?#iefix") format("embedded-opentype"), url("http://at.alicdn.com/t/font_1442373896_4754455.woff") format("woff"), url("http://at.alicdn.com/t/font_1442373896_4754455.ttf") format("truetype"), url("http://at.alicdn.com/t/font_1442373896_4754455.svg#ifont") format("svg"); }

]]></style></defs><g class="transform-group"><g transform="scale(0.17578125, 0.17578125)"><path d="M868.014366 155.581428 155.900699 155.581428c-28.459169 0-51.553143 23.092951-51.553143 51.553143L104.347556 697.130418c0 28.367071 23.181979 51.54905 51.553143 51.54905l38.746466 0c2.339278 7.268544 6.66377 14.443967 13.062504 21.107737 1.557472 1.641383 3.631714 2.850931 5.79396 3.371794 64.611553 16.694217 80.612992 37.536918 84.421738 48.437176 4.236488 12.109806-2.76702 21.796422-3.199878 22.400173-4.152577 5.366218-3.203972 13.062504 2.074242 17.21508 5.362124 4.236488 13.062504 3.371794 17.386996-1.990331 5.877871-7.440459 14.011108-25.25622 7.352455-45.149293-9.169847-27.334555-42.210357-48.786123-98.171903-63.834864-4.673439-5.53404-6.054903-10.119475-6.054903-13.751189l0-0.088004c0-4.929266 3.110851-9.946536 8.733918-14.184047 0.171915-0.088004 0.348947-0.25992 0.520863-0.348947 1.641383-1.209548 3.371794-2.334161 5.362124-3.371794 0.432859-0.25992 0.952698-0.520863 1.385557-0.692778 2.334161-1.209548 5.101181-2.074242 7.78429-3.02694 4.324492-1.036609 12.020778-2.423189 24.390503-2.423189 21.623483 0 46.879704 4.240581 74.902944 12.541641 4.673439 2.078335 9.43079 4.152577 14.100136 6.659677 1.469468 0.780783 2.855024 1.557472 4.324492 2.423189 5.970992 3.375887 11.936867 7.007601 17.903765 11.160177 0.520863 0.343831 1.041726 0.604774 1.557472 0.948605 94.452185 66.340941 83.900875 99.818403 83.98888 99.818403l0 0c-3.199878 6.054903-0.864694 13.490246 5.101181 16.690124 1.818415 0.952698 3.808746 1.473561 5.79396 1.473561 4.412496 0 8.738012-2.423189 10.900258-6.575766 3.892657-7.352455 16.778128-44.372603-61.58359-108.640326l218.573087 0c-78.278831 64.182788-65.392336 101.115955-61.499679 108.467387 2.25025 4.236488 6.747681 6.831592 11.333116 6.831592 1.818415 0 3.719718-0.432859 5.53404-1.381463 6.054903-3.203972 8.477069-10.295484 5.278213-16.350386-0.088004-0.343831-11.244089-33.8172 83.72896-100.419084 6.659677-4.673439 13.146415-8.650007 19.72218-12.285814 1.209548-0.688685 2.418073-1.381463 3.543709-1.986237 4.929266-2.595105 9.774621-4.845355 14.703887-7.007601 28.027333-8.217149 53.194526-12.453636 74.735122-12.453636 12.365632 0 20.066011 1.381463 24.302499 2.418073 2.683109 0.952698 5.538133 1.906419 7.873318 3.115967 0.432859 0.25992 0.864694 0.432859 1.297552 0.604774 2.074242 1.125637 4.064572 2.334161 5.705955 3.547803l0.25992 0.171915c5.622044 4.324492 8.738012 9.253758 8.821923 14.272052 0 0.088004 0.088004 0.088004 0.088004 0.171915-0.088004 3.631714-1.469468 8.217149-6.054903 13.667278-55.961546 15.048741-89.002057 36.500309-98.171903 63.834864-6.659677 19.978007 1.469468 37.797861 7.352455 45.149293 4.236488 5.362124 12.020778 6.226818 17.386996 1.990331 5.362124-4.240581 6.226818-12.025894 1.986237-17.298991-0.083911-0.088004-7.352455-9.774621-3.199878-21.972431 3.631714-10.984169 19.549242-31.914874 84.505649-48.78203 2.25025-0.604774 4.240581-1.730411 5.799076-3.371794 6.486738-6.747681 10.812253-13.927197 13.146415-21.191648 27.850301-0.608867 50.427506-23.353894 50.427506-51.465139L919.658583 207.134571C919.567509 178.674379 896.473535 155.581428 868.014366 155.581428L868.014366 155.581428 868.014366 155.581428zM235.477083 392.57812l109.932762 0c4.673439 16.346293 12.541641 57.863872-6.054903 110.193705l-1.297552 3.635807c-8.993838 25.083282-20.237927 56.3064 4.673439 120.745015 15.220656 39.355333 5.877871 61.760622-0.520863 71.2743l-0.088004 0c-1.12052-0.432859-2.162246-0.864694-3.28379-1.297552-14.792914-5.538133-28.975938-9.081843-42.4713-10.900258-1.125637-0.171915-2.334161-0.343831-3.459798-0.432859-6.314823-0.692778-12.453636-1.125637-18.336624-1.125637-1.297552 0-2.595105 0.088004-3.980661 0.088004-4.929266 0.083911-9.686616 0.432859-14.272052 1.036609-1.209548 0.171915-2.423189 0.25992-3.631714 0.432859-0.952698 0.171915-1.818415 0.432859-2.76702 0.520863 4.324492-20.414959 7.179516-50.688449-6.226818-70.926376-14.44806-21.800515-17.819854-88.918145-0.25992-139.517567C251.045663 454.594569 241.963821 415.155325 235.477083 392.57812L235.477083 392.57812 235.477083 392.57812zM721.060433 627.241674c24.911366-64.527642 13.667278-95.749738 4.669346-120.833019l-1.297552-3.547803c-18.596544-52.417837-10.635221-93.935416-5.966898-110.193705l109.84885 0c-6.486738 22.4892-15.569604 61.928445-7.956206 83.812871 17.470907 50.688449 14.183024 117.806079-0.25992 139.517567-13.495362 20.237927-10.55131 50.511417-6.314823 70.926376-0.948605-0.171915-1.814322-0.432859-2.855024-0.520863-0.776689-0.083911-1.641383-0.171915-2.5071-0.25992-5.101181-0.688685-10.467399-1.036609-16.089443-1.209548-0.776689 0-1.469468-0.088004-2.162246-0.088004-20.670785-0.083911-44.024679 3.980661-68.587098 13.755282C715.177446 689.086208 705.751772 666.597007 721.060433 627.241674L721.060433 627.241674 721.060433 627.241674zM894.828059 697.130418c0 14.443967-11.500938 26.204825-25.771967 26.813692-1.6465-4.757351-4.240581-9.342786-7.961322-13.583366-0.51677-0.604774-1.121544-1.12052-1.641383-1.641383-0.171915-0.25992-0.432859-0.432859-0.604774-0.604774-1.818415-1.902326-3.892657-3.631714-6.142907-5.362124-0.692778-0.520863-1.469468-1.125637-2.162246-1.6465-1.729387-1.209548-3.631714-2.423189-5.622044-3.543709-0.864694-0.520863-1.557472-1.041726-2.422166-1.557472-0.255827-0.171915-0.604774-0.25992-0.864694-0.348947 0 0-0.083911 0-0.083911-0.083911-4.673439-15.829524-11.676947-49.906643-0.864694-66.085114 20.586874-30.962176 21.968337-106.389052 3.02694-161.313989-5.106298-14.787798 2.855024-51.204196 10.379395-75.683726l4.841262 0c6.835685 0 12.369725-5.53404 12.369725-12.365632 0-6.835685-5.53404-12.369725-12.369725-12.369725l-13.839193 0L709.47149 367.753735l-10.640338 0c-6.835685 0-12.369725 5.53404-12.369725 12.369725 0 4.757351 2.76702 8.821923 6.747681 10.896164-5.538133 21.972431-11.505032 65.476247 7.868201 119.968325l1.297552 3.719718c8.045233 22.316262 17.127076 47.572482-4.408403 103.450117-17.558911 45.322232-8.389064 74.819033 0.948605 90.647533-8.217149 4.324492-16.518209 9.337669-24.907273 15.048741l0 0L389.870452 723.854059c-0.780783-0.520863-1.557472-0.952698-2.423189-1.469468-6.747681-4.585435-13.579273-8.650007-20.24202-12.281721-0.776689-0.432859-1.641383-0.952698-2.5071-1.473561 9.342786-15.82543 18.508539-45.322232 0.952698-90.559529-21.623483-55.789631-12.541641-81.045851-4.501524-103.362112l1.385557-3.803629c19.373233-54.492078 13.406335-97.911984 7.872295-119.968325 3.976568-2.078335 6.831592-6.054903 6.831592-10.900258 0-6.831592-5.53404-12.369725-12.369725-12.369725l-10.55131 0L218.781842 367.665731l-13.839193 0c-6.835685 0-12.369725 5.538133-12.369725 12.369725 0 6.831592 5.53404 12.369725 12.369725 12.369725l4.841262 0c7.528464 24.562419 15.485693 60.890812 10.379395 75.683726-18.680455 53.887304-17.210987 130.780579 3.02694 161.313989 10.728342 16.08535 3.808746 50.251497-0.864694 66.081021-0.255827 0.171915-0.688685 0.25992-0.948605 0.432859-0.952698 0.520863-1.818415 1.125637-2.683109 1.6465-1.813299 1.036609-3.631714 2.162246-5.27412 3.28379-0.780783 0.608867-1.6465 1.125637-2.423189 1.730411-2.162246 1.6465-4.152577 3.375887-5.882987 5.190209l-0.776689 0.780783c-0.520863 0.51677-1.125637 1.036609-1.6465 1.557472-1.469468 1.730411-2.679016 3.631714-3.892657 5.446036 0 0.088004-0.083911 0.088004-0.083911 0.176009-1.6465 2.595105-3.02694 5.27412-3.980661 8.04114l-38.750559 0c-14.787798 0-26.813692-12.020778-26.813692-26.813692L129.168872 206.957539c0-14.787798 12.025894-26.813692 26.813692-26.813692l712.11776 0c14.792914 0 26.813692 12.025894 26.813692 26.813692L894.828059 697.130418 894.828059 697.130418 894.828059 697.130418zM485.793128 335.059102c0-6.831592-5.53404-12.369725-12.369725-12.369725-41.862433 0-77.32511-25.859971-94.452185-38.318724-3.892657-2.850931-7.007601-5.101181-9.169847-6.310729-5.877871-3.459798-13.406335-1.557472-16.950044 4.324492-3.459798 5.877871-1.557472 13.406335 4.324492 16.950044 1.641383 1.036609 4.064572 2.76702 7.179516 5.106298 19.201318 14.011108 59.07342 43.070958 108.984157 43.070958C480.259088 347.428827 485.793128 341.890694 485.793128 335.059102L485.793128 335.059102 485.793128 335.059102zM662.847613 278.059923c-2.074242 1.297552-5.190209 3.459798-9.165754 6.310729-17.043165 12.45773-52.505841 38.318724-94.456279 38.318724-6.831592 0-12.365632 5.538133-12.365632 12.369725 0 6.831592 5.53404 12.369725 12.365632 12.369725 49.910737 0 89.782839-29.063943 108.984157-43.075051 3.115967-2.25025 5.538133-4.064572 7.268544-5.101181 5.882987-3.459798 7.78429-11.072173 4.324492-16.95516C676.254971 276.414447 668.642596 274.512121 662.847613 278.059923L662.847613 278.059923 662.847613 278.059923zM600.138386 613.746312l-83.119069-37.365003c-3.375887-1.557472-7.352455-1.469468-10.639315 0.25992l-73.52148 37.276998c-6.142907 3.115967-8.566096 10.555403-5.450129 16.610306 3.02694 6.054903 10.467399 8.472975 16.606213 5.446036l68.24736-34.597983 77.757968 34.858926c1.641383 0.780783 3.371794 1.125637 5.101181 1.125637 4.673439 0 9.258874-2.683109 11.244089-7.263427C609.137341 623.865787 606.365204 616.513332 600.138386 613.746312L600.138386 613.746312 600.138386 613.746312zM600.138386 613.746312" fill="#694c9c"></path></g></g></svg>