<?xml version="1.0" encoding="utf-8"?>
<!-- Generator: Adobe Illustrator 16.0.0, SVG Export Plug-In . SVG Version: 6.00 Build 0)  -->
<!DOCTYPE svg PUBLIC "-//W3C//DTD SVG 1.1//EN" "http://www.w3.org/Graphics/SVG/1.1/DTD/svg11.dtd">
<svg version="1.1" id="图层_1" xmlns="http://www.w3.org/2000/svg" xmlns:xlink="http://www.w3.org/1999/xlink" x="0px" y="0px"
	 width="180px" height="180px" viewBox="0 0 180 180" enable-background="new 0 0 180 180" xml:space="preserve">
<g>
	<g transform="scale(0.17578125, 0.17578125)">
		<path fill="#003564" d="M868.012,155.581H155.9c-28.458,0-51.553,23.094-51.553,51.553v490.001
			c0,28.367,23.183,51.544,51.553,51.544h38.747c2.339,7.267,6.664,14.444,13.061,21.111c1.558,1.639,3.633,2.85,5.794,3.367
			c64.611,16.7,80.614,37.544,84.422,48.445c4.236,12.111-2.767,21.789-3.2,22.4c-4.153,5.367-3.203,13.056,2.075,17.211
			c5.361,4.233,13.061,3.378,17.386-1.989c5.878-7.444,14.011-25.256,7.353-45.144c-9.169-27.345-42.211-48.789-98.172-63.845
			c-4.672-5.533-6.056-10.117-6.056-13.745v-0.089c0-4.933,3.111-9.95,8.736-14.189c0.169-0.089,0.344-0.256,0.517-0.344
			c1.644-1.211,3.372-2.333,5.364-3.367c0.433-0.267,0.956-0.522,1.383-0.7c2.336-1.211,5.103-2.078,7.786-3.022
			c4.322-1.044,12.019-2.422,24.389-2.422c21.625,0,46.881,4.233,74.903,12.533c4.675,2.078,9.433,4.156,14.1,6.667
			c1.469,0.778,2.858,1.556,4.325,2.422c5.972,3.378,11.936,7.011,17.908,11.156c0.517,0.344,1.042,0.611,1.556,0.956
			c94.453,66.333,83.903,99.811,83.989,99.811l0,0c-3.2,6.056-0.864,13.489,5.103,16.689c1.817,0.956,3.808,1.478,5.792,1.478
			c4.414,0,8.739-2.422,10.903-6.578c3.892-7.344,16.778-44.367-61.586-108.633h218.578c-78.283,64.178-65.395,101.111-61.5,108.467
			c2.244,4.233,6.745,6.833,11.333,6.833c1.811,0,3.717-0.433,5.533-1.389c6.056-3.2,8.478-10.289,5.278-16.344
			c-0.089-0.344-11.245-33.822,83.728-100.422c6.661-4.678,13.144-8.656,19.722-12.289c1.206-0.689,2.417-1.378,3.539-1.989
			c4.933-2.589,9.778-4.844,14.711-7c28.022-8.222,53.189-12.456,74.733-12.456c12.367,0,20.067,1.378,24.3,2.422
			c2.683,0.944,5.539,1.9,7.878,3.111c0.433,0.256,0.861,0.433,1.294,0.6c2.072,1.133,4.061,2.333,5.706,3.556l0.261,0.167
			c5.617,4.322,8.739,9.256,8.817,14.278c0,0.089,0.089,0.089,0.089,0.167c-0.089,3.633-1.467,8.222-6.056,13.667
			c-55.956,15.056-89,36.5-98.167,63.833c-6.661,19.978,1.467,37.8,7.35,45.156c4.239,5.356,12.022,6.222,17.389,1.989
			c5.361-4.244,6.228-12.022,1.983-17.3c-0.083-0.089-7.35-9.778-3.2-21.978c3.633-10.978,19.55-31.911,84.511-48.778
			c2.244-0.606,4.233-1.733,5.789-3.367c6.489-6.756,10.822-13.933,13.156-21.2c27.844-0.6,50.422-23.344,50.422-51.456V207.134
			C919.568,178.675,896.479,155.581,868.012,155.581L868.012,155.581L868.012,155.581z M235.478,392.578h109.934
			c4.672,16.347,12.542,57.864-6.056,110.195l-1.297,3.636c-8.994,25.081-20.239,56.303,4.672,120.747
			c15.222,39.356,5.878,61.756-0.519,71.272h-0.089c-1.119-0.433-2.161-0.867-3.283-1.294c-14.792-5.544-28.978-9.089-42.472-10.906
			c-1.125-0.172-2.331-0.339-3.456-0.428c-6.319-0.7-12.458-1.133-18.339-1.133c-1.297,0-2.594,0.089-3.983,0.089
			c-4.928,0.089-9.686,0.433-14.272,1.039c-1.206,0.172-2.419,0.261-3.631,0.433c-0.953,0.172-1.819,0.433-2.767,0.522
			c4.325-20.417,7.178-50.689-6.228-70.928c-14.447-21.8-17.819-88.917-0.258-139.517
			C251.045,454.595,241.964,415.156,235.478,392.578L235.478,392.578L235.478,392.578z M721.062,627.245
			c24.911-64.533,13.667-95.756,4.672-120.836l-1.3-3.547c-18.6-52.417-10.633-93.936-5.967-110.195h109.845
			c-6.483,22.489-15.567,61.928-7.956,83.814c17.472,50.686,14.189,117.809-0.256,139.52c-13.5,20.233-10.556,50.511-6.317,70.922
			c-0.95-0.167-1.817-0.433-2.856-0.522c-0.772-0.078-1.639-0.167-2.506-0.256c-5.1-0.689-10.467-1.039-16.089-1.211
			c-0.778,0-1.472-0.089-2.167-0.089c-20.667-0.083-44.022,3.983-68.583,13.756C715.179,689.09,705.757,666.601,721.062,627.245
			L721.062,627.245L721.062,627.245z M894.829,697.134c0,14.444-11.5,26.2-25.772,26.811c-1.644-4.756-4.239-9.344-7.956-13.583
			c-0.522-0.606-1.122-1.122-1.644-1.639c-0.178-0.267-0.433-0.433-0.606-0.611c-1.817-1.9-3.894-3.628-6.139-5.356
			c-0.7-0.522-1.478-1.128-2.167-1.65c-1.733-1.206-3.633-2.422-5.622-3.544c-0.867-0.517-1.556-1.039-2.422-1.556
			c-0.256-0.172-0.6-0.261-0.867-0.35c0,0-0.078,0-0.078-0.083c-4.678-15.828-11.678-49.906-0.867-66.083
			c20.589-30.967,21.967-106.389,3.022-161.317c-5.106-14.786,2.856-51.203,10.378-75.683h4.844c6.833,0,12.367-5.533,12.367-12.367
			s-5.533-12.369-12.367-12.369h-13.833H709.473h-10.639c-6.839,0-12.372,5.536-12.372,12.369c0,4.758,2.767,8.822,6.75,10.897
			c-5.539,21.972-11.511,65.475,7.867,119.97l1.3,3.719c8.044,22.314,17.122,47.57-4.411,103.447
			c-17.556,45.322-8.389,74.822,0.944,90.65c-8.211,4.328-16.511,9.339-24.9,15.05l0,0H389.87c-0.781-0.522-1.556-0.956-2.422-1.472
			c-6.747-4.583-13.581-8.65-20.242-12.283c-0.778-0.433-1.642-0.95-2.508-1.472c9.344-15.828,18.508-45.322,0.953-90.561
			c-21.622-55.789-12.542-81.045-4.5-103.359l1.386-3.803c19.372-54.495,13.406-97.914,7.872-119.97
			c3.975-2.078,6.831-6.056,6.831-10.9c0-6.833-5.531-12.369-12.367-12.369h-10.556H218.781h-13.839
			c-6.833,0-12.369,5.536-12.369,12.369c0,6.831,5.536,12.369,12.369,12.369h4.842c7.528,24.561,15.486,60.889,10.381,75.683
			c-18.681,53.889-17.211,130.778,3.025,161.311c10.733,16.089,3.811,50.256-0.864,66.083c-0.256,0.172-0.689,0.261-0.947,0.428
			c-0.953,0.522-1.817,1.133-2.681,1.656c-1.814,1.033-3.633,2.156-5.275,3.278c-0.783,0.611-1.647,1.128-2.422,1.733
			c-2.164,1.644-4.153,3.378-5.883,5.189l-0.778,0.778c-0.519,0.522-1.125,1.044-1.644,1.556c-1.469,1.733-2.681,3.633-3.894,5.456
			c0,0.078-0.083,0.078-0.083,0.167c-1.647,2.6-3.028,5.278-3.981,8.044h-38.75c-14.789,0-26.814-12.022-26.814-26.811V206.959
			c0-14.789,12.025-26.814,26.814-26.814h712.115c14.8,0,26.811,12.025,26.811,26.814L894.829,697.134L894.829,697.134
			L894.829,697.134z M485.795,335.059c0-6.831-5.536-12.369-12.372-12.369c-41.861,0-77.325-25.856-94.45-38.317
			c-3.894-2.853-7.008-5.103-9.172-6.311c-5.878-3.461-13.406-1.558-16.95,4.322c-3.458,5.878-1.556,13.408,4.325,16.95
			c1.642,1.039,4.067,2.767,7.183,5.108c19.2,14.011,59.07,43.069,108.981,43.069C480.259,347.428,485.795,341.892,485.795,335.059
			L485.795,335.059L485.795,335.059z M662.845,278.062c-2.072,1.297-5.189,3.458-9.167,6.311
			c-17.039,12.456-52.5,38.317-94.456,38.317c-6.828,0-12.361,5.539-12.361,12.369c0,6.833,5.533,12.369,12.361,12.369
			c49.911,0,89.789-29.064,108.989-43.075c3.111-2.25,5.533-4.064,7.267-5.1c5.883-3.461,7.789-11.072,4.322-16.956
			C676.257,276.414,668.645,274.512,662.845,278.062L662.845,278.062L662.845,278.062z M600.14,613.745l-83.117-37.367
			c-3.378-1.556-7.356-1.467-10.642,0.267l-73.522,37.278c-6.142,3.111-8.567,10.55-5.45,16.606
			c3.028,6.061,10.467,8.472,16.606,5.45l68.247-34.6l77.761,34.856c1.639,0.783,3.367,1.133,5.1,1.133
			c4.672,0,9.256-2.689,11.244-7.267C609.134,623.868,606.368,616.512,600.14,613.745L600.14,613.745L600.14,613.745z"/>
	</g>
</g>
</svg>
