<?xml version="1.0" standalone="no"?><!DOCTYPE svg PUBLIC "-//W3C//DTD SVG 1.1//EN" "http://www.w3.org/Graphics/SVG/1.1/DTD/svg11.dtd"><svg width="84.609375" height="80" viewBox="0 0 84.609375 80" version="1.1" xmlns="http://www.w3.org/2000/svg" xmlns:xlink="http://www.w3.org/1999/xlink"><defs><style type="text/css"><![CDATA[
@font-face { font-family: ifont; src: url("http://at.alicdn.com/t/font_1442373896_4754455.eot?#iefix") format("embedded-opentype"), url("http://at.alicdn.com/t/font_1442373896_4754455.woff") format("woff"), url("http://at.alicdn.com/t/font_1442373896_4754455.ttf") format("truetype"), url("http://at.alicdn.com/t/font_1442373896_4754455.svg#ifont") format("svg"); }

]]></style></defs><g class="transform-group"><g transform="scale(0.078125, 0.078125)"><path d="M769.800906 957.193794 217.588899 957.193794c-67.003566 0-121.4748-55.063313-121.4748-122.757637L96.114098 223.608365c0-32.465645 12.729691-62.760335 35.722078-85.456683 22.893707-22.498988 53.287077-34.83396 85.752722-34.83396 10.854775 0 19.735955 8.88118 19.735955 19.735955 0 10.854775-8.88118 19.735955-19.735955 19.735955-45.984774 0-82.002891 35.524718-82.002891 80.818734l0 610.729112c0 45.886094 36.807555 83.285728 82.002891 83.285728l552.212007 0c45.195336 0 82.002891-36.807555 82.002891-82.101571L851.803797 325.643249c0-10.854775 8.88118-19.735955 19.735955-19.735955s19.735955 8.88118 19.735955 19.735955L891.275706 835.521634C891.275706 902.62388 836.804471 957.193794 769.800906 957.193794zM871.539751 345.379204 217.588899 345.379204c-66.411487 0-120.586682-54.175195-121.4748-121.080081 0-0.19736 0-0.394719 0-0.690758l0-0.986798c0-0.19736 0-0.394719 0-0.690758 0.394719-31.873567 13.02573-61.576178 35.722078-83.779127 22.893707-22.498988 53.287077-34.83396 85.752722-34.83396l653.950853 0c10.854775 0 19.735955 8.88118 19.735955 19.735955s-8.88118 19.735955-19.735955 19.735955L217.588899 142.789631c-45.787414 0-81.706852 35.228679-82.002891 80.325335 0.296039 45.688735 36.906235 82.792329 82.002891 82.792329l653.950853 0c10.854775 0 19.735955 8.88118 19.735955 19.735955S882.394526 345.379204 871.539751 345.379204zM865.816325 244.133757 208.806399 244.133757c-10.854775 0-19.735955-8.88118-19.735955-19.735955s8.88118-19.735955 19.735955-19.735955l657.009926 0c10.854775 0 19.735955 8.88118 19.735955 19.735955S876.6711 244.133757 865.816325 244.133757zM493.596222 666.779223c-72.628313 0-131.737496-59.109184-131.737496-131.737496S420.96791 403.304231 493.596222 403.304231s131.737496 59.109184 131.737496 131.737496S566.224535 666.779223 493.596222 666.779223zM493.596222 442.77614c-50.918763 0-92.265587 41.346825-92.265587 92.265587 0 50.918763 41.346825 92.265587 92.265587 92.265587 50.918763 0 92.265587-41.346825 92.265587-92.265587C585.86181 484.221644 544.514985 442.77614 493.596222 442.77614zM666.877903 840.060904c-10.854775 0-19.735955-8.88118-19.735955-19.735955 0-84.667245-68.878481-153.545726-153.545726-153.545726-84.667245 0-153.545726 68.878481-153.545726 153.545726 0 10.854775-8.88118 19.735955-19.735955 19.735955s-19.735955-8.88118-19.735955-19.735955c0-51.609521 20.031994-100.061289 56.54351-136.474125 36.412836-36.412836 84.963284-56.54351 136.474125-56.54351s100.061289 20.031994 136.474125 56.54351c36.412836 36.412836 56.54351 84.963284 56.54351 136.474125C686.613858 831.278404 677.732678 840.060904 666.877903 840.060904z" fill="#694c9c"></path></g></g></svg>