<?xml version="1.0" encoding="utf-8"?>
<!-- Generator: Adobe Illustrator 16.0.0, SVG Export Plug-In . SVG Version: 6.00 Build 0)  -->
<!DOCTYPE svg PUBLIC "-//W3C//DTD SVG 1.1//EN" "http://www.w3.org/Graphics/SVG/1.1/DTD/svg11.dtd">
<svg version="1.1" id="图层_1" xmlns="http://www.w3.org/2000/svg" xmlns:xlink="http://www.w3.org/1999/xlink" x="0px" y="0px"
	 width="84.609px" height="80px" viewBox="0 0 84.609 80" enable-background="new 0 0 84.609 80" xml:space="preserve">
<g>
	<g transform="scale(0.078125, 0.078125)">
		<path fill="#003564" d="M769.797,957.2H217.584c-67,0-121.475-55.075-121.475-122.763V223.606
			c0-32.462,12.738-62.756,35.725-85.456c22.9-22.5,53.288-34.831,85.75-34.831c10.863,0,19.738,8.881,19.738,19.738
			c0,10.85-8.875,19.731-19.738,19.731c-45.975,0-82,35.525-82,80.819v610.731c0,45.888,36.813,83.287,82,83.287h552.213
			c45.2,0,82-36.813,82-82.1V325.644c0-10.856,8.888-19.737,19.738-19.737c10.862,0,19.737,8.881,19.737,19.737v509.881
			C891.272,902.625,836.797,957.2,769.797,957.2z M871.534,345.381h-653.95c-66.412,0-120.587-54.175-121.475-121.081
			c0-0.2,0-0.394,0-0.694v-0.981c0-0.2,0-0.4,0-0.694c0.4-31.875,13.025-61.575,35.725-83.781c22.9-22.5,53.288-34.831,85.75-34.831
			h653.95c10.862,0,19.737,8.881,19.737,19.738c0,10.85-8.875,19.731-19.737,19.731h-653.95c-45.787,0-81.7,35.231-82,80.325
			c0.3,45.694,36.913,82.794,82,82.794h653.95c10.862,0,19.737,8.881,19.737,19.737C891.272,336.5,882.397,345.381,871.534,345.381z
			 M865.822,244.131H208.809c-10.863,0-19.738-8.881-19.738-19.731c0-10.856,8.875-19.737,19.738-19.737h657.013
			c10.85,0,19.725,8.881,19.725,19.737C885.547,235.25,876.672,244.131,865.822,244.131z M493.597,666.775
			c-72.625,0-131.738-59.1-131.738-131.725c0-72.637,59.113-131.744,131.738-131.744s131.725,59.106,131.725,131.744
			C625.322,607.675,566.222,666.775,493.597,666.775z M493.597,442.775c-50.925,0-92.263,41.35-92.263,92.275
			c0,50.913,41.337,92.25,92.263,92.25c50.913,0,92.262-41.337,92.262-92.25C585.859,484.225,544.509,442.775,493.597,442.775z
			 M666.872,840.062c-10.85,0-19.725-8.888-19.725-19.737c0-84.675-68.888-153.55-153.55-153.55s-153.55,68.875-153.55,153.55
			c0,10.85-8.875,19.737-19.737,19.737c-10.85,0-19.725-8.888-19.725-19.737c0-51.612,20.025-100.063,56.538-136.475
			c36.413-36.413,84.962-56.55,136.475-56.55s100.05,20.038,136.475,56.55c36.4,36.412,56.537,84.962,56.537,136.475
			C686.609,831.275,677.722,840.062,666.872,840.062z"/>
	</g>
</g>
</svg>
