<?xml version="1.0" standalone="no"?><!DOCTYPE svg PUBLIC "-//W3C//DTD SVG 1.1//EN" "http://www.w3.org/Graphics/SVG/1.1/DTD/svg11.dtd"><svg width="100" height="100" viewBox="0 0 100 100" version="1.1" xmlns="http://www.w3.org/2000/svg" xmlns:xlink="http://www.w3.org/1999/xlink"><defs><style type="text/css"><![CDATA[
@font-face { font-family: ifont; src: url("http://at.alicdn.com/t/font_1442373896_4754455.eot?#iefix") format("embedded-opentype"), url("http://at.alicdn.com/t/font_1442373896_4754455.woff") format("woff"), url("http://at.alicdn.com/t/font_1442373896_4754455.ttf") format("truetype"), url("http://at.alicdn.com/t/font_1442373896_4754455.svg#ifont") format("svg"); }

]]></style></defs><g class="transform-group"><g transform="scale(0.09765625, 0.09765625)"><path d="M705.574997 152.085814c0-48.174186 39.038684-87.231737 87.257825-87.231737 48.174113 0 87.214844 39.057551 87.214844 87.231737 0 48.195675-39.039708 87.255273-87.214844 87.255273C744.613681 239.341087 705.574997 200.281489 705.574997 152.085814L705.574997 152.085814zM714.098463 284.213064l0-0.021489L531.71429 466.570321l34.183921 34.184567 148.199229-148.192134L714.09744 606.588285 571.144917 606.588285l0 0.151449L316.543066 939.910836l-69.903887 0 0 20.218484 189.904759 0 0-20.218484 176.920518-230.375901 266.582187 0.763386 0-107.559715L880.046642 284.192597 714.098463 284.192597 714.098463 284.213064zM146.398136 507.027755l0 453.101565 385.578131-453.101565L146.398136 507.027755zM531.976267 476.011344 154.267683 166.381401l73.136644 309.629943L531.976267 476.011344z" fill="#694c9c"></path></g></g></svg>