<?xml version="1.0" encoding="utf-8"?>
<!-- Generator: Adobe Illustrator 16.0.0, SVG Export Plug-In . SVG Version: 6.00 Build 0)  -->
<!DOCTYPE svg PUBLIC "-//W3C//DTD SVG 1.1//EN" "http://www.w3.org/Graphics/SVG/1.1/DTD/svg11.dtd">
<svg version="1.1" id="图层_1" xmlns="http://www.w3.org/2000/svg" xmlns:xlink="http://www.w3.org/1999/xlink" x="0px" y="0px"
	 width="100px" height="100px" viewBox="0 0 100 100" enable-background="new 0 0 100 100" xml:space="preserve">
<g>
	<g transform="scale(0.09765625, 0.09765625)">
		<path fill="#003564" d="M705.582,152.085c0-48.175,39.04-87.23,87.26-87.23c48.16,0,87.21,39.055,87.21,87.23
			c0,48.195-39.04,87.255-87.21,87.255C744.622,239.341,705.582,200.281,705.582,152.085L705.582,152.085z M714.102,284.216v-0.025
			l-182.38,182.38l34.18,34.185l148.2-148.195v254.031h-142.96v0.15L316.546,939.912h-69.905v20.22h189.905v-20.22l176.915-230.371
			l266.581,0.76v-107.56V284.191h-165.94V284.216z M146.4,507.031v453.101l385.581-453.101H146.4z M531.981,476.011L154.27,166.38
			l73.135,309.631H531.981z"/>
	</g>
</g>
</svg>
