<?xml version="1.0" encoding="utf-8"?>
<!-- Generator: Adobe Illustrator 16.0.0, SVG Export Plug-In . SVG Version: 6.00 Build 0)  -->
<!DOCTYPE svg PUBLIC "-//W3C//DTD SVG 1.1//EN" "http://www.w3.org/Graphics/SVG/1.1/DTD/svg11.dtd">
<svg version="1.1" id="图层_1" xmlns="http://www.w3.org/2000/svg" xmlns:xlink="http://www.w3.org/1999/xlink" x="0px" y="0px"
	 width="80px" height="80px" viewBox="0 0 80 80" enable-background="new 0 0 80 80" xml:space="preserve">
<g>
	<g transform="scale(0.078125, 0.078125)">
		<path fill="#003564" d="M946.375,490.106c0.013-21.85-13.05-38.494-31.75-41.569c-18.688-3.075-79.05-13.013-85.987-14.144
			c-6.95-1.15-14.088-8.069-15.4-11.45c-1.313-3.369-8.938-22.2-11.862-29.456c-2.95-7.275-1.925-16.581,4.375-25.525
			c6.3-8.925,39.9-55.869,48.388-67.719c8.487-11.869,8.65-34.606-4.838-48.387c-13.475-13.781-47.75-47.094-56.725-55.863
			c-9-8.756-31.088-8.637-42.675-0.431c-11.575,8.2-71.7,51.012-71.7,51.012s-9.963,6.887-20.663,2.637
			c-10.7-4.237-33.438-14.069-33.438-14.069s-7.175-5.431-9.675-19.788c-2.5-14.369-11.1-65.281-14.075-82.7
			c-2.962-17.419-20.662-29.619-37.825-29.469c-17.15,0.15-57.906,0-74.325,0c-16.425,0-32.263,15.688-34.75,29.469
			c-2.494,13.788-11.563,69.156-14.075,84.45c-2.519,15.3-11.438,18.481-11.438,18.481s-19.563,8.05-29.913,12.3
			c-10.337,4.262-15.387,2.65-30.35-7.475c-14.95-10.106-44.737-31.025-63.037-43.825c-18.3-12.813-38.119-7.925-49.263,3.519
			c-11.137,11.438-36.056,35.769-51.019,50.431c-14.95,14.65-12.606,37.538,0.581,55.7c13.2,18.188,32.337,45.438,41.35,58.213
			c9.012,12.781,10.837,19.5,8.362,26.825c-2.494,7.331-6.644,16.575-11.431,27.712c-4.813,11.138-9.694,13.65-27.863,17.019
			c-17.356,3.206-58.419,9.919-77.4,13.306c-18.988,3.375-30.656,21.425-30.656,41.813v64.662c0,24.338,13.2,37.238,38.419,41.925
			s62.656,10.662,74.769,12.612c12.1,1.95,17.669,6.6,21.412,15.525c3.725,8.95,5.125,10.125,9.369,22.575
			c4.256,12.475,6.456,15.55-4.981,31.675c-11.438,16.137-34.313,48.112-46.031,64.512c-11.738,16.4-6.45,37.838,4.981,49.85
			c11.438,12.037,35.469,35.638,48.969,48.962c13.494,13.325,35.194,16.288,53.363,3.525c18.188-12.75,54.981-38.987,65.688-46.612
			c10.7-7.638,21.913-5.288,27.85-2.938c5.944,2.35,11.25,4.6,22,9.1c10.731,4.475,13.85,11.2,16.412,23.45
			c2.569,12.225,10.188,56.85,13.931,78.588c3.75,21.712,18.906,33.425,40.619,33.712c21.7,0.3,33.269,0.125,61.569,0
			c28.287-0.125,41.862-12.6,45.45-31.375c3.587-18.775,12.45-72.95,14.212-83.725c1.788-10.75,5.95-14.725,13.638-18.475
			c7.7-3.725,14.313-6.462,26.838-11.875c12.512-5.4,18.912-0.65,27.7,5.725c8.8,6.375,47.513,33.775,63.775,45.3
			c16.288,11.525,36.737,10.325,51.9-4.4c15.188-14.725,31.625-30.975,49.275-48.375c17.65-17.4,12.163-39.6,4.4-51.45
			c-7.775-11.9-44.487-62.95-49.7-70.25c-5.225-7.275-4.4-18.6-1.75-24.625c2.625-6,8.425-18.225,11.713-25.225
			c3.287-6.95,9.6-11.2,18.188-12.9c8.575-1.675,62.712-11,83.75-14.6c21.025-3.65,31.1-19.925,31.25-39.925
			C946.425,536.062,946.35,507.475,946.375,490.106z M908.587,557.387c0.212,5.763-4.663,10.65-8.813,11.375
			C895.6,569.5,836.5,580.15,818.287,583.05c-18.213,2.925-33.238,15.075-38.713,28.063c-3.987,9.438-5.475,13.513-10.6,26.963
			c-5.125,13.438-4.638,32.188,2.563,42.263c7.2,10.075,46.813,64.9,50.387,70.45c3.55,5.55,4.263,11.95-1.287,17.5
			c-5.55,5.55-40.987,41.2-47.388,47.387c-6.412,6.188-11.825,4.8-18.8,0c-6.95-4.8-39.6-26.387-64.425-44.362
			c-16.975-12.275-32.825-12.425-48.7-6.013c-15.875,6.413,1.275-0.287-22.2,8.963c-23.487,9.25-30.237,27.625-33.737,48.237
			c-3.5,20.638-10.663,62.987-11.95,70.45c-1.287,7.475-5.55,11.1-13.662,11.1h-64.9c-8.106,0-11.737-2.987-14.519-11.95
			c-2.769-8.963-10.031-54.863-12.8-74.288c-2.781-19.425-13.819-36.112-24.769-40.563c-10.938-4.45-4.981-2.138-27.319-11.1
			c-22.344-8.963-39.631-4.5-51.231,3.85c-11.612,8.338-58.637,42.688-65.331,46.95c-6.681,4.287-14.65,3.287-18.35-0.412
			c-3.7-3.7-40.556-40.563-46.537-46.538c-5.981-5.987-5.363-12.925,0-20.5c5.356-7.575,28.387-40.75,40.988-57.95
			c12.594-17.2,17.931-34.737,9.819-53.487c-8.119-18.737-4.419-10.237-12.388-28.6c-7.962-18.363-24.281-24.463-38.419-26.9
			c-14.144-2.425-68.881-11.525-76.85-13.225c-7.969-1.713-11.95-7.263-11.95-14.088v-66.188c0-9.525,7.669-12.438,12.381-13.225
			c4.7-0.8,54.219-9.181,73-12.394c18.787-3.2,36.356-11.319,43.55-29.031c7.188-17.7,4.269-11.1,11.1-27.319
			c6.825-16.231,3.8-33.938-7.681-49.956c-11.494-16.013-38.85-54-44.4-61.9c-5.55-7.9-5.769-12.6,0.85-19.212
			c6.619-6.619,42.05-42.481,46.956-46.969c4.913-4.481,12.075-5.4,18.362-0.85c6.3,4.55,49.313,35.65,64.038,46.106
			c14.731,10.462,32.35,12.563,49.1,5.55c16.75-7.019,10.25-4.475,26.9-11.1c16.65-6.619,24.844-19.088,28.181-39.706
			c3.331-20.612,11.95-74.144,12.813-77.7c0.85-3.55,5.55-10.462,11.738-10.462c6.194,0,65.819,0.069,69.794,0
			c4-0.069,10.3,3.294,11.325,9.181c1.025,5.9,13.025,74.288,14.95,86.25c1.913,11.95,15.575,28.569,25.525,32.731
			c9.975,4.156,21.35,8.75,31.325,13.087c9.962,4.344,30.125,1.913,36.15-2.281c6.025-4.175,70.513-48.806,75.425-52.369
			c4.9-3.556,11.525-3.269,17.637,2.85c6.113,6.119,43.338,43.194,47.538,47.531s4.662,8.663,1.15,13.663
			c-3.537,5.006-36.725,51.8-47.55,67.456c-10.8,15.65-11.725,33.731-5.4,48.962c6.325,15.219,3.975,9.388,9.1,21.906
			c5.125,12.531,16.275,29.031,33.6,31.881c17.3,2.85,76.913,12.744,84.813,13.95c7.9,1.212,11.1,7.181,11.1,13.369
			C908.587,495.256,908.375,551.612,908.587,557.387z M526.825,322.806c-110.444,0-199.994,89.538-199.994,199.994
			c0,110.463,89.55,200,199.994,200c110.475,0,200-89.537,200-200C726.825,412.344,637.3,322.806,526.825,322.806z M526.825,687.8
			c-91.113,0-164.994-73.862-164.994-165c0-91.125,73.881-164.994,164.994-164.994c91.138,0,165,73.869,165,164.994
			C691.825,613.937,617.962,687.8,526.825,687.8z"/>
	</g>
</g>
</svg>
