<?xml version="1.0" standalone="no"?><!DOCTYPE svg PUBLIC "-//W3C//DTD SVG 1.1//EN" "http://www.w3.org/Graphics/SVG/1.1/DTD/svg11.dtd"><svg width="100" height="100" viewBox="0 0 100 100" version="1.1" xmlns="http://www.w3.org/2000/svg" xmlns:xlink="http://www.w3.org/1999/xlink"><defs><style type="text/css"><![CDATA[
@font-face { font-family: ifont; src: url("http://at.alicdn.com/t/font_1442373896_4754455.eot?#iefix") format("embedded-opentype"), url("http://at.alicdn.com/t/font_1442373896_4754455.woff") format("woff"), url("http://at.alicdn.com/t/font_1442373896_4754455.ttf") format("truetype"), url("http://at.alicdn.com/t/font_1442373896_4754455.svg#ifont") format("svg"); }

]]></style></defs><g class="transform-group"><g transform="scale(0.09765625, 0.09765625)"><path d="M938.7008 116.3776c-10.624-6.4256-22.9376-10.3424-36.224-10.3424L123.136 106.0352c-13.2864 0-25.6 3.9168-36.224 10.3424l425.9072 396.9792L938.7008 116.3776zM59.3664 147.0464C55.2192 156.032 52.736 165.9136 52.736 176.4352l0 458.2912c0 14.08 4.2496 27.136 11.392 38.144L343.808 412.1856 59.3664 147.0464zM483.3024 693.3248c0-46.1824 12.1856-89.5232 33.3312-127.1808l-3.84 3.584-138.7776-129.3568L95.8976 699.6224c8.3712 3.5328 17.5872 5.504 27.2384 5.504l360.7808 0C483.7376 701.184 483.3024 697.3184 483.3024 693.3248zM744.0896 432.5632c98.5344 0 184.448 54.9376 228.8128 135.7824L972.9024 176.4352c0-10.5216-2.4832-20.4032-6.6304-29.3632L681.8048 412.1856l25.0368 23.3472C719.0528 433.7664 731.4176 432.5632 744.0896 432.5632zM744.0896 464.5632c-126.1568 0-228.7872 102.6304-228.7872 228.7872s102.6304 228.7872 228.7872 228.7872c126.1568 0 228.7872-102.6304 228.7872-228.7872S870.2464 464.5632 744.0896 464.5632zM884.7872 657.8944l-167.68 161.3824c-3.7376 3.584-8.5248 5.3504-13.312 5.3504-4.9152 0-9.8304-1.8688-13.568-5.632l-84.8128-84.7872c-7.5008-7.4752-7.5008-19.6608 0-27.1616s19.6608-7.5008 27.1616 0l71.4752 71.4752 154.1376-148.3264c7.6288-7.3472 19.7632-7.0912 27.1616 0.5376C892.6464 638.3616 892.416 650.5472 884.7872 657.8944z" fill="#694c9c"></path></g></g></svg>