<?xml version="1.0" encoding="utf-8"?>
<!-- Generator: Adobe Illustrator 16.0.0, SVG Export Plug-In . SVG Version: 6.00 Build 0)  -->
<!DOCTYPE svg PUBLIC "-//W3C//DTD SVG 1.1//EN" "http://www.w3.org/Graphics/SVG/1.1/DTD/svg11.dtd">
<svg version="1.1" id="图层_1" xmlns="http://www.w3.org/2000/svg" xmlns:xlink="http://www.w3.org/1999/xlink" x="0px" y="0px"
	 width="100px" height="100px" viewBox="0 0 100 100" enable-background="new 0 0 100 100" xml:space="preserve">
<g>
	<g transform="scale(0.09765625, 0.09765625)">
		<path fill="#003564" d="M938.702,116.38c-10.62-6.43-22.94-10.345-36.22-10.345H123.135c-13.285,0-25.6,3.915-36.225,10.345
			l425.911,396.976L938.702,116.38z M59.365,147.045c-4.145,8.985-6.63,18.87-6.63,29.39v458.286c0,14.08,4.25,27.14,11.395,38.15
			l279.681-260.686L59.365,147.045z M483.301,693.322c0-46.18,12.19-89.52,33.335-127.18l-3.84,3.59l-138.78-129.36L95.9,699.622
			c8.37,3.54,17.585,5.5,27.235,5.5h360.781C483.741,701.182,483.301,697.322,483.301,693.322z M744.092,432.566
			c98.53,0,184.45,54.935,228.811,135.775V176.435c0-10.52-2.48-20.405-6.62-29.365L681.802,412.186l25.04,23.345
			C719.062,433.766,731.422,432.566,744.092,432.566z M744.092,464.566c-126.15,0-228.791,102.635-228.791,228.786
			c0,126.16,102.64,228.791,228.791,228.791s228.791-102.62,228.791-228.791C972.883,567.201,870.242,464.566,744.092,464.566z
			 M884.782,657.902l-167.68,161.38c-3.73,3.58-8.52,5.35-13.3,5.35c-4.92,0-9.84-1.87-13.58-5.63l-84.8-84.79
			c-7.5-7.48-7.5-19.67,0-27.17c7.5-7.5,19.66-7.5,27.16,0l71.47,71.48l154.14-148.32c7.63-7.35,19.76-7.1,27.16,0.53
			C892.642,638.362,892.422,650.542,884.782,657.902z"/>
	</g>
</g>
</svg>
